<svg width="18" height="18" viewBox="0 0 18 18" fill="none" xmlns="http://www.w3.org/2000/svg">
<path d="M12.75 1.5C13.7437 1.5 14.6859 1.89375 15.3984 2.60156C16.1109 3.30938 16.5 4.25625 16.5 5.25V12.75C16.5 13.7437 16.1063 14.6859 15.3984 15.3984C14.6906 16.1109 13.7437 16.5 12.75 16.5H5.25C4.25625 16.5 3.31406 16.1063 2.60156 15.3984C1.88906 14.6906 1.5 13.7437 1.5 12.75V5.25C1.5 4.25625 1.89375 3.31406 2.60156 2.60156C3.30938 1.88906 4.25625 1.5 5.25 1.5H12.75ZM12.75 0H5.25C2.3625 0 0 2.3625 0 5.25V12.75C0 15.6375 2.3625 18 5.25 18H12.75C15.6375 18 18 15.6375 18 12.75V5.25C18 2.3625 15.6375 0 12.75 0Z" fill="#4E2D2D"/>
</svg>
