<svg width="22" height="17" viewBox="0 0 22 17" fill="none" xmlns="http://www.w3.org/2000/svg">
<path d="M4.38457 16.3424V15.2686C4.38457 14.857 4.13461 14.5886 3.7061 14.5886C3.49185 14.5886 3.25974 14.6602 3.09905 14.8928C2.97407 14.696 2.79552 14.5886 2.5277 14.5886C2.34916 14.5886 2.17061 14.6423 2.02778 14.8391V14.6244H1.65283V16.3424H2.02778V15.3939C2.02778 15.0897 2.18847 14.9465 2.43843 14.9465C2.68839 14.9465 2.81337 15.1076 2.81337 15.3939V16.3424H3.18832V15.3939C3.18832 15.0897 3.36686 14.9465 3.59897 14.9465C3.84893 14.9465 3.97392 15.1076 3.97392 15.3939V16.3424H4.38457ZM9.93732 14.6244H9.33027V14.1054H8.95532V14.6244H8.61609V14.9644H8.95532V15.7518C8.95532 16.1455 9.11601 16.3782 9.54452 16.3782C9.70521 16.3782 9.88375 16.3245 10.0087 16.2529L9.90161 15.9308C9.79448 16.0024 9.6695 16.0203 9.58023 16.0203C9.40168 16.0203 9.33027 15.9129 9.33027 15.7339V14.9644H9.93732V14.6244ZM13.1154 14.5886C12.9012 14.5886 12.7583 14.696 12.6691 14.8391V14.6244H12.2941V16.3424H12.6691V15.376C12.6691 15.0897 12.794 14.9286 13.0261 14.9286C13.0976 14.9286 13.1868 14.9465 13.2583 14.9644L13.3654 14.6065C13.294 14.5886 13.1868 14.5886 13.1154 14.5886ZM8.31256 14.7675C8.13401 14.6423 7.88405 14.5886 7.61623 14.5886C7.18773 14.5886 6.90205 14.8033 6.90205 15.1434C6.90205 15.4297 7.11631 15.5908 7.49125 15.6444L7.66979 15.6623C7.86619 15.6981 7.97332 15.7518 7.97332 15.8413C7.97332 15.9666 7.83049 16.056 7.58052 16.056C7.33056 16.056 7.13416 15.9666 7.00918 15.8771L6.83064 16.1634C7.02704 16.3066 7.29485 16.3782 7.56267 16.3782C8.0626 16.3782 8.34827 16.1455 8.34827 15.8234C8.34827 15.5192 8.11616 15.3581 7.75907 15.3044L7.58052 15.2865C7.41983 15.2686 7.29485 15.2328 7.29485 15.1255C7.29485 15.0002 7.41983 14.9286 7.61623 14.9286C7.83049 14.9286 8.04474 15.0181 8.15187 15.0718L8.31256 14.7675ZM18.2754 14.5886C18.0611 14.5886 17.9183 14.696 17.829 14.8391V14.6244H17.4541V16.3424H17.829V15.376C17.829 15.0897 17.954 14.9286 18.1861 14.9286C18.2575 14.9286 18.3468 14.9465 18.4182 14.9644L18.5253 14.6065C18.4539 14.5886 18.3468 14.5886 18.2754 14.5886ZM13.4904 15.4834C13.4904 16.0024 13.8475 16.3782 14.4009 16.3782C14.6509 16.3782 14.8294 16.3245 15.008 16.1813L14.8294 15.8771C14.6866 15.9845 14.5438 16.0381 14.3831 16.0381C14.0796 16.0381 13.8653 15.8234 13.8653 15.4834C13.8653 15.1612 14.0796 14.9465 14.3831 14.9286C14.5438 14.9286 14.6866 14.9823 14.8294 15.0897L15.008 14.7854C14.8294 14.6423 14.6509 14.5886 14.4009 14.5886C13.8475 14.5886 13.4904 14.9644 13.4904 15.4834ZM16.9541 15.4834V14.6244H16.5792V14.8391C16.4542 14.6781 16.2757 14.5886 16.0436 14.5886C15.5615 14.5886 15.1865 14.9644 15.1865 15.4834C15.1865 16.0024 15.5615 16.3782 16.0436 16.3782C16.2935 16.3782 16.4721 16.2887 16.5792 16.1276V16.3424H16.9541V15.4834ZM15.5793 15.4834C15.5793 15.1791 15.7757 14.9286 16.0971 14.9286C16.4006 14.9286 16.6149 15.1612 16.6149 15.4834C16.6149 15.7876 16.4006 16.0381 16.0971 16.0381C15.7757 16.0203 15.5793 15.7876 15.5793 15.4834ZM11.0979 14.5886C10.5979 14.5886 10.2408 14.9465 10.2408 15.4834C10.2408 16.0203 10.5979 16.3782 11.1157 16.3782C11.3657 16.3782 11.6156 16.3066 11.812 16.1455L11.6335 15.8771C11.4907 15.9845 11.3121 16.056 11.1336 16.056C10.9015 16.056 10.6694 15.9487 10.6158 15.6444H11.8835C11.8835 15.5908 11.8835 15.555 11.8835 15.5013C11.9013 14.9465 11.5799 14.5886 11.0979 14.5886ZM11.0979 14.9107C11.33 14.9107 11.4907 15.0539 11.5264 15.3223H10.6336C10.6694 15.0897 10.83 14.9107 11.0979 14.9107ZM20.4001 15.4834V13.9443H20.0251V14.8391C19.9001 14.6781 19.7216 14.5886 19.4895 14.5886C19.0074 14.5886 18.6325 14.9644 18.6325 15.4834C18.6325 16.0024 19.0074 16.3782 19.4895 16.3782C19.7394 16.3782 19.918 16.2887 20.0251 16.1276V16.3424H20.4001V15.4834ZM19.0253 15.4834C19.0253 15.1791 19.2217 14.9286 19.543 14.9286C19.8466 14.9286 20.0608 15.1612 20.0608 15.4834C20.0608 15.7876 19.8466 16.0381 19.543 16.0381C19.2217 16.0203 19.0253 15.7876 19.0253 15.4834ZM6.4914 15.4834V14.6244H6.11646V14.8391C5.99148 14.6781 5.81293 14.5886 5.58082 14.5886C5.09875 14.5886 4.7238 14.9644 4.7238 15.4834C4.7238 16.0024 5.09875 16.3782 5.58082 16.3782C5.83078 16.3782 6.00933 16.2887 6.11646 16.1276V16.3424H6.4914V15.4834ZM5.09875 15.4834C5.09875 15.1791 5.29515 14.9286 5.61653 14.9286C5.92005 14.9286 6.13431 15.1612 6.13431 15.4834C6.13431 15.7876 5.92005 16.0381 5.61653 16.0381C5.29515 16.0203 5.09875 15.7876 5.09875 15.4834Z" fill="black"/>
<path d="M13.8126 1.57812H8.18848V11.7072H13.8126V1.57812Z" fill="#FF5F00"/>
<path d="M8.54535 6.6427C8.54535 4.58468 9.50949 2.7593 10.9914 1.57818C9.90229 0.719177 8.52749 0.200195 7.02772 0.200195C3.47467 0.200195 0.600098 3.08143 0.600098 6.6427C0.600098 10.204 3.47467 13.0852 7.02772 13.0852C8.52749 13.0852 9.90229 12.5662 10.9914 11.7072C9.50949 10.544 8.54535 8.70073 8.54535 6.6427Z" fill="#EB001B"/>
<path d="M21.3998 6.6427C21.3998 10.204 18.5252 13.0852 14.9722 13.0852C13.4724 13.0852 12.0976 12.5662 11.0085 11.7072C12.5083 10.5261 13.4546 8.70073 13.4546 6.6427C13.4546 4.58468 12.4904 2.7593 11.0085 1.57818C12.0976 0.719177 13.4724 0.200195 14.9722 0.200195C18.5252 0.200195 21.3998 3.09932 21.3998 6.6427Z" fill="#F79E1B"/>
</svg>
