<svg width="26" height="9" viewBox="0 0 26 9" fill="none" xmlns="http://www.w3.org/2000/svg">
<path d="M11.2671 8.32917H9.26465L10.5171 0.584961H12.5194L11.2671 8.32917Z" fill="#00579F"/>
<path d="M18.5259 0.774038C18.1309 0.617345 17.5045 0.444336 16.7299 0.444336C14.7524 0.444336 13.3599 1.49881 13.3514 3.00639C13.3349 4.11869 14.3484 4.73648 15.1063 5.10735C15.881 5.48633 16.1444 5.73369 16.1444 6.07149C16.1365 6.5903 15.5184 6.82944 14.9418 6.82944C14.1424 6.82944 13.714 6.70615 13.063 6.41751L12.7994 6.29378L12.5192 8.03218C12.9888 8.24614 13.8541 8.43601 14.7524 8.44434C16.8535 8.44434 18.2213 7.40618 18.2376 5.79961C18.2455 4.91803 17.7104 4.24253 16.5567 3.69054C15.8564 3.33621 15.4275 3.09728 15.4275 2.73473C15.4357 2.40514 15.7902 2.06755 16.5808 2.06755C17.2318 2.05102 17.7101 2.20749 18.0724 2.36407L18.2535 2.44631L18.5259 0.774038Z" fill="#00579F"/>
<path d="M21.1874 5.58567C21.3523 5.14078 21.9869 3.41891 21.9869 3.41891C21.9785 3.43544 22.1514 2.9658 22.2503 2.67749L22.3903 3.34478C22.3903 3.34478 22.7695 5.19848 22.8518 5.58567C22.5388 5.58567 21.5829 5.58567 21.1874 5.58567ZM23.6591 0.584961H22.1103C21.6326 0.584961 21.2698 0.724901 21.0637 1.2275L18.0894 8.32906H20.1904C20.1904 8.32906 20.5363 7.37325 20.6107 7.16739C20.8412 7.16739 22.8851 7.16739 23.1816 7.16739C23.2391 7.43927 23.4205 8.32906 23.4205 8.32906H25.2746L23.6591 0.584961Z" fill="#00579F"/>
<path d="M7.59221 0.584961L5.63119 5.86577L5.4169 4.79476C5.05435 3.55895 3.91731 2.21628 2.64844 1.54866L4.44466 8.32096H6.56215L9.70959 0.584961H7.59221Z" fill="#00579F"/>
<path d="M3.80982 0.584961H0.588135L0.555176 0.741435C3.06829 1.38408 4.73267 2.93317 5.4165 4.79509L4.71614 1.23593C4.60084 0.741325 4.2465 0.601276 3.80982 0.584961Z" fill="#FAA61A"/>
</svg>
