
<svg width="24" height="24" viewBox="0 0 24 24" fill="none" xmlns="http://www.w3.org/2000/svg">
<path d="M12 0C5.3736 0 0 5.3736 0 12C0 18.6264 5.3736 24 12 24C18.6264 24 24 18.6264 24 12C24 5.3736 18.6264 0 12 0ZM12.2543 18.9868C12.2542 18.9868 12.2545 18.9868 12.2543 18.9868H12.2514C11.0493 18.9862 9.8681 18.6848 8.81909 18.1128L5.01178 19.1113L6.03076 15.3906C5.40216 14.3018 5.07147 13.0666 5.07202 11.8011C5.07367 7.84241 8.29559 4.62177 12.2543 4.62177C14.1755 4.6225 15.9789 5.3703 17.3348 6.72729C18.6909 8.08447 19.4372 9.88843 19.4365 11.8068C19.4348 15.7657 16.2125 18.9868 12.2543 18.9868Z" fill="#64AB3C"/>
</svg>
