<svg width="18" height="17" viewBox="0 0 18 17" fill="none" xmlns="http://www.w3.org/2000/svg">
<path d="M17.77 6.8779C17.678 6.33016 17.1721 5.965 16.4822 5.965C16.2522 5.965 16.0682 5.965 15.8382 5.965C15.4243 5.91936 15.3323 6.0563 15.3323 6.37581C15.3323 7.97337 15.3323 9.52528 15.3323 11.1228C15.3323 11.9444 14.5044 12.8117 13.5385 12.9943C10.5029 13.6789 7.46728 14.318 4.43166 15.0026C4.1097 15.0939 3.74175 15.0939 3.37379 15.0939C3.23581 15.0939 3.00584 15.0026 2.95985 14.8657C2.91386 14.7744 3.05184 14.5918 3.14382 14.5005C3.28181 14.4093 3.46579 14.318 3.64976 14.2267C4.20169 14.0441 4.79961 13.8615 5.35154 13.6789C7.60526 12.9486 9.85898 12.2183 12.1127 11.4424C13.1246 11.1228 13.6765 10.4382 13.6765 9.57093C13.7225 6.83225 13.6765 4.04793 13.6765 1.30926C13.6765 0.85281 13.4465 0.487654 12.9406 0.305076C12.3427 0.076853 11.7907 0.259429 11.2848 0.487652C8.0652 1.99392 4.8916 3.5002 1.672 5.00647C0.752118 5.46292 0.200195 6.10194 0.200195 7.01483C0.200195 9.61657 0.200195 12.2183 0.200195 14.8201C0.200195 14.957 0.200184 15.0939 0.246178 15.1852C0.568138 16.0525 1.39605 16.6002 2.49991 16.6002C4.75362 16.6002 7.00733 16.6002 9.26105 16.6002C11.5148 16.6002 13.7225 16.6002 15.9762 16.6002C16.4821 16.6002 16.8961 16.5089 17.264 16.1894C17.724 15.8242 17.724 15.3221 17.724 14.8657C17.724 12.3096 17.724 9.79915 17.724 7.24305C17.816 7.19741 17.816 7.01483 17.77 6.8779ZM8.38716 6.0563C8.61714 5.46292 9.12308 5.09776 9.85898 5.00647C10.3649 4.96083 10.7789 5.23469 10.8708 5.69114C10.9628 6.37581 10.1349 7.19741 9.26105 7.19741C8.57114 7.19741 8.15719 6.69532 8.38716 6.0563Z" fill="#E47418"/>
</svg>
